<?xml version="1.0"?>
<svg xmlns="http://www.w3.org/2000/svg" id="Layer_3" enable-background="new 0 0 64 64" height="512px" viewBox="0 0 64 64" width="512px" class=""><g><g><g fill="#f4b2b0"><path d="m21.5 15c.828 0 1.5.672 1.5 1.5v1c0 .828.672 1.5 1.5 1.5h7.5v-9h-12v3.5c0 .828.672 1.5 1.5 1.5z" data-original="#F4B2B0"/><path d="m19 27 5-5 8 8h-30l10-10 10 10" data-original="#F4B2B0"/><path d="m27 16v2.293c0 .453.18.887.5 1.207.828.828 2.172.828 3 0 .828-.828.828-2.172 0-3-.32-.32-.754-.5-1.207-.5z" data-original="#F4B2B0"/></g><g fill="#b3404a"><path d="m58 24.375h-6-7c-.266 0-.52.105-.707.293l-2.293 2.293-3.293-3.293c-.391-.391-1.023-.391-1.414 0l-.605.605-3.688-3.687v-10.586c0-.552-.447-1-1-1h-7v-3c0-.552-.447-1-1-1h-4v-3c0-.552-.447-1-1-1h-4c-.553 0-1 .448-1 1v3h-4c-.553 0-1 .448-1 1v3h-7c-.553 0-1 .448-1 1v30c0 .553.447 1 1 1h3v3c0 .553.447 1 1 1h1v17c0 .553.447 1 1 1h4c.553 0 1-.447 1-1v-5h8v5c0 .553.447 1 1 1h4c.553 0 1-.447 1-1v-17h1c.553 0 1-.447 1-1v-3h3c.553 0 1-.447 1-1v-16.586l2.274 2.274-.981.981c-.188.187-.293.441-.293.706s.105.52.293.707l7 7c.391.391 1.023.391 1.414 0l2.293-2.292v24.395c-1.161.414-2 1.514-2 2.816v2c0 .553.447 1 1 1h6c.553 0 1-.447 1-1v-4-13.001h2v13 4c0 .553.447 1 1 1h6c.553 0 1-.447 1-1v-2c0-1.302-.839-2.402-2-2.816v-14.285c2.279-.465 4-2.484 4-4.899v-8.625c0-2.756-2.243-5-5-5zm-29.793-5.582c-.134-.134-.207-.311-.207-.5v-1.293h1.293c.188 0 .366.074.5.207.437.437.437 1.149 0 1.586-.424.424-1.162.424-1.586 0zm2.793-3.17c-.482-.396-1.075-.623-1.707-.623h-2.293c-.553 0-1 .448-1 1v2h-1.5c-.275 0-.5-.224-.5-.5v-1c0-1.378-1.121-2.5-2.5-2.5-.275 0-.5-.224-.5-.5v-2.5h10zm-15-12.623h2v2h-2zm-5 4h12v2h-12zm-2 54v-16h2v16zm4-16h8v6h-8zm0 10v-2h8v2zm12 6h-2v-16h2zm2-18h-20v-2h20zm-24-4v-8h28v8zm1.414-10 7.586-7.586 7.586 7.586zm16-2 3.586-3.586 5.586 5.586h-7.172zm10.586.586-6.293-6.293c-.391-.391-1.023-.391-1.414 0l-4.293 4.293-6.293-6.293c-.391-.391-1.023-.391-1.414 0l-8.293 8.293v-16.586h16v2.5c0 1.378 1.121 2.5 2.5 2.5.275 0 .5.224.5.5v1c0 1.378 1.121 2.5 2.5 2.5h2.123c.057.069.106.143.17.207.589.59 1.373.915 2.207.915.487 0 .951-.123 1.375-.332l.625.624zm11 5.375-5.586-5.585 1.586-1.586 3.293 3.293c.391.391 1.023.391 1.414 0l2.707-2.707h12.586c1.654 0 3 1.346 3 3v6.624h-2v-5.625h-2v8.625h-10v-8.625c0-.404-.243-.769-.617-.924-.374-.154-.804-.069-1.09.217zm7 28.039h-4v-1c0-.552.448-1 1-1h3zm1-18c-.553 0-1 .447-1 1v13h-2v-16h10v16h-2v-13c0-.553-.447-1-1-1zm9 18h-4v-2h3c.552 0 1 .448 1 1zm0-20.184v-2.816h2c0 1.302-.839 2.402-2 2.816z" data-original="#B3404A" class="active-path"/><path d="m56 20.375v-2c0-2.206-1.794-4-4-4s-4 1.794-4 4v2c0 2.206 1.794 4 4 4s4-1.794 4-4zm-2 0c0 1.103-.897 2-2 2s-2-.897-2-2v-2c0-1.103.897-2 2-2s2 .897 2 2z" data-original="#B3404A" class="active-path"/><path d="m7 33h6v2h-6z" data-original="#B3404A" class="active-path"/><path d="m18 35h9v2h-9z" data-original="#B3404A" class="active-path"/></g></g></g> </svg>
