<?xml version="1.0"?>
<svg xmlns="http://www.w3.org/2000/svg" id="Capa_1" enable-background="new 0 0 512 512" height="512px" viewBox="0 0 512 512" width="512px" class=""><g><g><g><path d="m460.825 52.27h-121.995l-82.83 203.73 82.83 203.73h121.995c24.121 0 43.675-19.554 43.675-43.675v-320.11c0-24.121-19.554-43.675-43.675-43.675z" fill="#ff6f7f" data-original="#FF6F7F"/><path d="m173.17 52.27h-121.995c-24.121 0-43.675 19.554-43.675 43.675v320.11c0 24.121 19.554 43.675 43.675 43.675h121.995l82.83-203.73z" fill="#5c84d9" data-original="#5C84D9"/><path d="m173.17 52.27h165.66v407.46h-165.66z" fill="#eaeaea" data-original="#EAEAEA"/><path d="m54.64 245.101c0-74.68 4.414-142.545 38.244-192.832h-41.709c-24.121.001-43.675 19.555-43.675 43.676v320.11c0 24.121 19.554 43.675 43.675 43.675h103.292c-61.04-51.486-99.827-128.522-99.827-214.629z" fill="#4677d4" data-original="#4677D4"/></g><g><path d="m139.25 260.831v-21.876c0-4.142-3.358-7.5-7.5-7.5s-7.5 3.358-7.5 7.5v21.876c0 4.142 3.358 7.5 7.5 7.5s7.5-3.357 7.5-7.5z" data-original="#000000" class="active-path" style="fill:#000000"/><path d="m372.75 238.955v21.876c0 4.142 3.358 7.5 7.5 7.5s7.5-3.358 7.5-7.5v-21.876c0-4.142-3.358-7.5-7.5-7.5s-7.5 3.358-7.5 7.5z" data-original="#000000" class="active-path" style="fill:#000000"/><path d="m220.107 265.622c9.054 10.389 22.137 16.348 35.893 16.348s26.838-5.959 35.893-16.348c2.721-3.123 2.396-7.86-.727-10.582s-7.86-2.396-10.582.727c-6.205 7.12-15.166 11.203-24.584 11.203s-18.379-4.083-24.584-11.203c-2.722-3.123-7.459-3.448-10.582-.727-3.123 2.722-3.448 7.459-.727 10.582z" data-original="#000000" class="active-path" style="fill:#000000"/><path d="m51.175 467.23h409.65c28.218 0 51.175-22.957 51.175-51.175v-226.185c0-4.142-3.358-7.5-7.5-7.5s-7.5 3.358-7.5 7.5v226.185c0 19.947-16.228 36.175-36.175 36.175h-114.495v-392.46h114.494c19.947 0 36.176 16.228 36.176 36.175v63.926c0 4.142 3.358 7.5 7.5 7.5s7.5-3.358 7.5-7.5v-63.926c0-28.218-22.957-51.175-51.175-51.175-48.639 0-358.125 0-409.65 0-28.218 0-51.175 22.957-51.175 51.175v210.023c0 4.142 3.357 7.5 7.5 7.5 4.142 0 7.5-3.358 7.5-7.5v-210.023c0-19.947 16.228-36.175 36.175-36.175h114.495v392.46h-114.495c-19.947 0-36.175-16.228-36.175-36.175v-80.087c0-4.142-3.358-7.5-7.5-7.5-4.143 0-7.5 3.358-7.5 7.5v80.087c0 28.218 22.957 51.175 51.175 51.175zm280.155-15h-150.66v-392.46h150.66z" data-original="#000000" class="active-path" style="fill:#000000"/></g></g></g> </svg>
