<?xml version="1.0"?>
<svg xmlns="http://www.w3.org/2000/svg" xmlns:xlink="http://www.w3.org/1999/xlink" version="1.1" id="Capa_1" x="0px" y="0px" viewBox="0 0 504.123 504.123" style="enable-background:new 0 0 504.123 504.123;" xml:space="preserve" width="512px" height="512px"><g><path style="fill:#4EBD9E;" d="M354.855,97.674V45.686c0-21.268,17.329-37.809,37.809-37.809c21.268,0,37.809,17.329,37.809,37.809  v51.2h-75.618V97.674z" data-original="#4EBD9E"/><path style="fill:#183651;" d="M431.262,105.551h-76.406c-4.726,0-7.877-3.151-7.877-7.877V45.686  C346.979,20.48,367.458,0,392.665,0c25.206,0,45.686,20.48,45.686,45.686v51.2C439.139,101.612,435.988,105.551,431.262,105.551z   M362.732,89.797h60.652V45.686c0-16.542-13.391-29.932-29.932-29.932c-16.542,0-29.932,13.391-29.932,29.932v44.111H362.732z" data-original="#183651"/><path style="fill:#4EBD9E;" d="M84.677,290.658v102.4c0,21.268-17.329,37.809-37.809,37.809c-21.268,0-37.809-17.329-37.809-37.809  v-102.4H84.677z" data-original="#4EBD9E"/><path style="fill:#183651;" d="M46.08,438.745c-25.206,0-45.686-20.48-45.686-45.686v-102.4c0-4.726,3.151-7.877,7.877-7.877h76.406  c4.726,0,7.877,3.151,7.877,7.877v102.4C92.554,418.265,72.074,438.745,46.08,438.745z M16.148,298.535v94.523  c0,16.542,13.391,29.932,29.932,29.932s29.932-13.391,29.932-29.932v-94.523H16.148z" data-original="#183651"/><path style="fill:#E1E6E8;" d="M84.677,393.058V45.686c0-21.268,17.329-37.809,37.809-37.809h270.966  c-21.268,0-37.809,17.329-37.809,37.809v347.372c0,21.268-17.329,37.809-37.809,37.809H46.08  C67.348,430.868,84.677,413.538,84.677,393.058z" data-original="#E1E6E8"/><path style="fill:#183651;" d="M317.046,438.745H46.08c-4.726,0-7.877-3.151-7.877-7.877s3.151-7.877,7.877-7.877  c16.542,0,29.932-13.391,29.932-29.932V45.686C76.012,20.48,96.492,0,121.699,0h270.966c4.726,0,7.877,3.151,7.877,7.877  s-3.151,7.877-7.877,7.877c-16.542,0-29.932,13.391-29.932,29.932v347.372C363.52,418.265,342.252,438.745,317.046,438.745z   M80.739,422.991h236.308c16.542,0,29.932-13.391,29.932-29.932V45.686c0-11.815,3.938-22.055,11.028-29.932h-235.52  c-16.542,0-29.932,13.391-29.932,29.932v347.372C92.554,404.086,87.828,415.114,80.739,422.991z" data-original="#183651"/><g>
	<path style="fill:#FFFFFF;" d="M317.046,398.572c3.151,0,6.302-2.363,6.302-6.302V45.686c0-2.363,0-3.938,0-6.302H122.486   c-3.151,0-6.302,2.363-6.302,6.302v347.372c0,2.363,0,3.938,0,6.302h200.862V398.572z" data-original="#FFFFFF"/>
	<path style="fill:#FFFFFF;" d="M496.64,389.908V358.4l-29.932-5.514c-2.363-10.24-6.302-20.48-11.815-29.145l17.329-25.206   l-22.055-22.055l-25.206,17.329c-8.665-5.514-18.905-9.452-29.145-11.815l-5.514-30.72h-31.508l-5.514,29.932   c-10.24,2.363-20.48,6.302-29.145,11.815l-25.206-17.329l-22.055,22.055l17.329,25.206c-5.514,8.665-9.452,18.905-11.815,29.145   l-29.932,5.514v31.508l29.932,5.514c2.363,10.24,6.302,20.48,11.815,29.145l-17.329,25.206l22.055,22.055l25.206-17.329   c8.665,5.514,18.905,9.452,29.145,11.815l5.514,29.932h31.508l5.514-29.932c10.24-2.363,20.48-6.302,29.145-11.815l25.206,17.329   l22.055-22.055l-17.329-25.206c5.514-8.665,9.452-18.905,11.815-29.145L496.64,389.908z" data-original="#FFFFFF"/>
</g><path style="fill:#183651;" d="M390.302,504.123L390.302,504.123h-31.508c-3.938,0-7.089-3.151-7.877-6.302l-4.726-25.206  c-7.877-2.363-14.966-5.514-22.055-9.452l-20.48,14.966c-3.151,2.363-7.089,1.575-10.24-0.788l-22.055-22.055  c-2.363-2.363-3.151-7.089-0.788-10.24l14.966-20.48c-3.938-7.089-7.089-14.178-9.452-22.055l-25.206-4.726  c-3.938-0.788-6.302-3.938-6.302-7.877V358.4c0-3.938,3.151-7.089,6.302-7.877l25.206-4.726c2.363-7.877,5.514-14.966,9.452-22.055  l-15.754-20.48c-2.363-3.151-1.575-7.089,0.788-10.24l22.055-22.055c2.363-2.363,7.089-3.151,10.24-0.788l20.48,14.966  c7.089-3.938,14.178-7.089,22.055-9.452l4.726-25.206c0.788-3.938,3.938-6.302,7.877-6.302l0,0h31.508  c3.938,0,7.089,3.151,7.877,6.302l4.726,25.206c7.877,2.363,14.966,5.514,22.055,9.452l20.48-14.966  c3.151-2.363,7.089-1.575,10.24,0.788l22.055,22.055c2.363,2.363,3.151,7.089,0.788,10.24l-14.966,20.48  c3.938,7.089,7.089,14.178,9.452,22.055l25.206,4.726c3.939,0.788,6.302,3.938,6.302,7.877v31.508c0,3.938-3.151,7.089-6.302,7.877  l-25.206,4.726c-2.363,7.877-5.514,14.966-9.452,22.055l14.966,20.48c2.363,3.151,1.575,7.089-0.788,10.24l-22.055,22.055  c-2.363,2.363-7.089,3.151-10.24,0.788l-20.48-14.966c-7.089,3.938-14.178,7.089-22.055,9.452l-4.726,25.206  C397.391,501.76,393.452,504.123,390.302,504.123z M365.095,488.369h18.117l3.938-23.631c0.788-3.151,3.151-5.514,6.302-6.302  c9.452-2.363,18.905-5.514,26.782-11.028c2.363-1.575,6.302-1.575,8.665,0l19.692,13.391l13.391-13.391l-13.391-19.692  c-1.575-2.363-1.575-6.302,0-8.665c5.514-8.665,8.665-17.329,11.028-26.782c0.788-3.151,3.151-5.514,6.302-6.302l23.631-3.938  v-18.117l-23.631-3.938c-3.151-0.788-5.514-3.151-6.302-6.302c-2.363-9.452-5.514-18.905-11.028-26.782  c-1.575-2.363-1.575-6.302,0-8.665l13.391-19.692l-13.391-13.391l-19.692,13.391c-2.363,1.575-6.302,1.575-8.665,0  c-8.665-5.514-17.329-8.665-26.782-11.028c-3.151-0.788-5.514-3.151-6.302-6.302l-3.938-23.631h-18.117l-3.938,23.631  c-0.788,3.151-3.151,5.514-6.302,6.302c-9.452,2.363-18.905,5.514-26.782,11.028c-2.363,1.575-6.302,1.575-8.665,0l-19.692-13.391  l-13.391,13.391l13.391,19.692c1.575,2.363,1.575,6.302,0,8.665c-5.514,8.665-8.665,17.329-11.028,26.782  c-0.788,3.151-3.151,5.514-6.302,6.302l-23.631,3.938v18.117l23.631,3.938c3.151,0.788,5.514,3.151,6.302,6.302  c2.363,9.452,5.514,18.905,11.028,26.782c1.575,2.363,1.575,6.302,0,8.665l-13.391,19.692l13.391,13.391l19.692-13.391  c2.363-1.575,6.302-1.575,8.665,0c8.665,5.514,17.329,8.665,26.782,11.028c3.151,0.788,5.514,3.151,6.302,6.302L365.095,488.369z" data-original="#183651"/><ellipse style="fill:#F05F50" cx="374.532" cy="373.524" rx="67.742" ry="67.742" data-original="#F05F50" class="active-path" data-old_color="#F05F50"/><ellipse style="fill:#FFFFFF;" cx="374.536" cy="373.52" rx="29.145" ry="29.145" data-original="#FFFFFF"/><g>
	<path style="fill:#183651;" d="M374.548,411.175L374.548,411.175c-10.24,0-18.905-3.938-25.994-11.028   c-7.089-7.089-11.028-16.542-11.028-25.994c0-20.48,16.542-37.022,37.022-37.022c10.24,0,18.905,3.938,25.994,11.028   c7.089,7.089,11.028,16.542,11.028,25.994C411.569,394.634,394.24,411.175,374.548,411.175z M374.548,352.886   c-11.815,0-21.268,9.452-21.268,21.268c0,5.514,2.363,11.028,6.302,14.966c3.938,3.938,9.452,6.302,14.966,6.302v7.877v-7.877   c11.815,0,21.268-9.452,21.268-21.268c0-5.514-2.363-11.028-6.302-14.966C385.575,354.462,380.062,352.886,374.548,352.886z" data-original="#183651"/>
	<rect x="135.877" y="72.468" style="fill:#183651;" width="15.754" height="15.754" data-original="#183651"/>
	<rect x="174.474" y="72.468" style="fill:#183651;" width="15.754" height="15.754" data-original="#183651"/>
	<rect x="212.283" y="72.468" style="fill:#183651;" width="15.754" height="15.754" data-original="#183651"/>
	<rect x="250.092" y="72.468" style="fill:#183651;" width="15.754" height="15.754" data-original="#183651"/>
	<rect x="287.902" y="72.468" style="fill:#183651;" width="15.754" height="15.754" data-original="#183651"/>
	<rect x="135.877" y="137.058" style="fill:#183651;" width="166.991" height="15.754" data-original="#183651"/>
	<rect x="135.877" y="201.649" style="fill:#183651;" width="166.991" height="15.754" data-original="#183651"/>
	<rect x="135.877" y="266.24" style="fill:#183651;" width="111.852" height="15.754" data-original="#183651"/>
	<rect x="135.877" y="330.043" style="fill:#183651;" width="96.886" height="15.754" data-original="#183651"/>
</g></g> </svg>
