<?xml version="1.0"?>
<svg xmlns="http://www.w3.org/2000/svg" id="Capa_1" enable-background="new 0 0 512 512" height="512px" viewBox="0 0 512 512" width="512px" class=""><g><g><g><path d="m365.884 353.14-25.62-204.961c-2.247-17.974-13.072-33.054-28.042-41.331-14.461 14.302-34.325 23.152-56.222 23.152s-41.761-8.85-56.221-23.152c-14.97 8.278-25.796 23.357-28.043 41.331l-25.62 204.961c-.534 4.27.792 8.562 3.639 11.787s6.942 5.073 11.245 5.073h26.019l9.018 128.054c.553 7.855 7.088 13.946 14.963 13.946h90c7.875 0 14.41-6.091 14.963-13.946l9.018-128.054h26.019c4.303 0 8.398-1.848 11.245-5.073 2.848-3.226 4.173-7.518 3.639-11.787z" data-original="#000000" class="active-path" fill="#000000"/></g><path d="m256 100c-27.57 0-50-22.43-50-50s22.43-50 50-50 50 22.43 50 50-22.43 50-50 50z" data-original="#000000" class="active-path" fill="#000000"/></g></g> </svg>
